<svg xmlns="http://www.w3.org/2000/svg" viewBox="0 0 200 200">
  <rect width="200" height="200" fill="#EAE0CC"/>
  <path d="M38 72 Q60 65 100 70 Q140 75 162 68 L162 140 Q140 133 100 138 Q60 143 38 136 Z" fill="rgba(160,160,131,0.25)" stroke="#A0A083" stroke-width="1.2" stroke-linejoin="round"/>
  <path d="M38 76 Q60 69 100 74 Q140 79 162 72" stroke="#C9ADA1" stroke-width="0.7" fill="none" opacity="0.5"/>
  <path d="M38 88 Q60 81 100 86 Q140 91 162 84" stroke="#C9ADA1" stroke-width="0.6" fill="none" opacity="0.4"/>
  <path d="M38 100 Q60 93 100 98 Q140 103 162 96" stroke="#C9ADA1" stroke-width="0.6" fill="none" opacity="0.4"/>
  <path d="M38 112 Q60 105 100 110 Q140 115 162 108" stroke="#C9ADA1" stroke-width="0.6" fill="none" opacity="0.4"/>
  <path d="M38 124 Q60 117 100 122 Q140 127 162 120" stroke="#C9ADA1" stroke-width="0.6" fill="none" opacity="0.4"/>
  <path d="M38 136 Q60 129 100 134 Q140 139 162 132" stroke="#C9ADA1" stroke-width="0.7" fill="none" opacity="0.5"/>
  <line x1="38" y1="72" x2="38" y2="68" stroke="#A0A083" stroke-width="1.5" stroke-linecap="round"/>
  <line x1="44" y1="71" x2="44" y2="67" stroke="#A0A083" stroke-width="1.5" stroke-linecap="round"/>
  <line x1="50" y1="70" x2="50" y2="66" stroke="#A0A083" stroke-width="1.5" stroke-linecap="round"/>
  <line x1="162" y1="68" x2="162" y2="64" stroke="#A0A083" stroke-width="1.5" stroke-linecap="round"/>
  <line x1="156" y1="68.5" x2="156" y2="64.5" stroke="#A0A083" stroke-width="1.5" stroke-linecap="round"/>
  <line x1="150" y1="69" x2="150" y2="65" stroke="#A0A083" stroke-width="1.5" stroke-linecap="round"/>
  <line x1="38" y1="136" x2="38" y2="140" stroke="#A0A083" stroke-width="1.5" stroke-linecap="round"/>
  <line x1="44" y1="137" x2="44" y2="141" stroke="#A0A083" stroke-width="1.5" stroke-linecap="round"/>
  <line x1="50" y1="138" x2="50" y2="142" stroke="#A0A083" stroke-width="1.5" stroke-linecap="round"/>
  <line x1="162" y1="132" x2="162" y2="136" stroke="#A0A083" stroke-width="1.5" stroke-linecap="round"/>
  <line x1="156" y1="132.5" x2="156" y2="136.5" stroke="#A0A083" stroke-width="1.5" stroke-linecap="round"/>
  <line x1="150" y1="133" x2="150" y2="137" stroke="#A0A083" stroke-width="1.5" stroke-linecap="round"/>
</svg>
