<svg xmlns="http://www.w3.org/2000/svg" viewBox="0 0 200 200">
  <rect width="200" height="200" fill="#F3EDE2"/>
  <ellipse cx="100" cy="120" rx="70" ry="12" fill="#C9ADA1" opacity="0.15"/>
  <path d="M40 90C40 128 68.386 155 100 155C131.614 155 160 128 160 90" stroke="#4D6A6D" stroke-width="1.5" stroke-linecap="round" fill="rgba(77,106,109,0.08)"/>
  <path d="M40 90H160" stroke="#798478" stroke-width="1" opacity="0.5"/>
  <ellipse cx="100" cy="90" rx="60" ry="11" stroke="#A0A083" stroke-width="0.8" fill="rgba(160,160,131,0.08)" opacity="0.6"/>
  <ellipse cx="100" cy="155" rx="22" ry="4" fill="#C9ADA1" opacity="0.4"/>
  <ellipse cx="100" cy="90" rx="46" ry="9" stroke="#C9ADA1" stroke-width="0.5" fill="none" opacity="0.4"/>
  <path d="M70 75 Q68 65 80 58" stroke="#A0A083" stroke-width="1" fill="none" opacity="0.45"/>
  <path d="M100 72 Q98 60 100 52" stroke="#A0A083" stroke-width="1" fill="none" opacity="0.5"/>
  <path d="M130 75 Q132 65 120 58" stroke="#A0A083" stroke-width="1" fill="none" opacity="0.45"/>
  <line x1="128" y1="52" x2="142" y2="108" stroke="#798478" stroke-width="2" stroke-linecap="round" opacity="0.7"/>
  <ellipse cx="136" cy="50" rx="5" ry="3" fill="#A0A083" opacity="0.6"/>
  <ellipse cx="100" cy="162" rx="44" ry="6" fill="#C9ADA1" opacity="0.18"/>
</svg>
