<svg xmlns="http://www.w3.org/2000/svg" viewBox="0 0 200 200">
  <rect width="200" height="200" fill="#F3EDE2"/>
  <circle cx="100" cy="100" r="65" fill="#EAE0CC" opacity="0.5"/>
  <circle cx="100" cy="80" r="40" fill="rgba(201,173,161,0.15)" opacity="0.8"/>
  <rect x="70" y="95" width="60" height="76" rx="4" fill="rgba(77,106,109,0.1)" stroke="#798478" stroke-width="1.5"/>
  <rect x="74" y="99" width="52" height="68" rx="2" fill="rgba(243,237,226,0.6)" stroke="none"/>
  <line x1="88" y1="108" x2="88" y2="162" stroke="#C9ADA1" stroke-width="0.7" opacity="0.4"/>
  <line x1="100" y1="108" x2="100" y2="162" stroke="#C9ADA1" stroke-width="0.5" opacity="0.25"/>
  <line x1="78" y1="118" x2="122" y2="118" stroke="#C9ADA1" stroke-width="0.6" opacity="0.3"/>
  <line x1="78" y1="130" x2="122" y2="130" stroke="#C9ADA1" stroke-width="0.6" opacity="0.3"/>
  <line x1="78" y1="142" x2="122" y2="142" stroke="#C9ADA1" stroke-width="0.6" opacity="0.3"/>
  <line x1="100" y1="95" x2="100" y2="80" stroke="#798478" stroke-width="1.5"/>
  <path d="M100 74C103 66 97 58 100 50" stroke="#C9ADA1" stroke-width="1.8" stroke-linecap="round" opacity="0.85"/>
  <path d="M95 72C92 64 98 56 95 48" stroke="#A0A083" stroke-width="0.8" stroke-linecap="round" opacity="0.3"/>
  <circle cx="100" cy="48" r="4" fill="#C9ADA1" opacity="0.7"/>
  <ellipse cx="100" cy="174" rx="38" ry="6" fill="#C9ADA1" opacity="0.18"/>
</svg>
