<svg xmlns="http://www.w3.org/2000/svg" viewBox="0 0 200 200">
  <rect width="200" height="200" fill="#F3EDE2"/>
  <circle cx="100" cy="100" r="75" fill="#EAE0CC" opacity="0.45"/>
  <path d="M100 28L145 84L100 178L55 84Z" fill="rgba(77,106,109,0.09)" stroke="#798478" stroke-width="1.5" stroke-linejoin="round"/>
  <path d="M100 28V178" stroke="#C9ADA1" stroke-width="0.8" opacity="0.4"/>
  <path d="M55 84H145" stroke="#A0A083" stroke-width="0.8" opacity="0.4"/>
  <path d="M76 52L124 52" stroke="#C9ADA1" stroke-width="0.5" opacity="0.3"/>
  <path d="M42 92L60 124L42 154L24 124Z" fill="rgba(160,160,131,0.06)" stroke="#A0A083" stroke-width="1" opacity="0.65"/>
  <path d="M158 88L176 120L158 150L140 120Z" fill="rgba(160,160,131,0.06)" stroke="#A0A083" stroke-width="1" opacity="0.65"/>
  <circle cx="100" cy="28" r="2.5" fill="#4D6A6D" opacity="0.7"/>
  <line x1="100" y1="18" x2="100" y2="14" stroke="#4D6A6D" stroke-width="1" opacity="0.5"/>
  <line x1="91" y1="22" x2="88" y2="19" stroke="#4D6A6D" stroke-width="1" opacity="0.5"/>
  <line x1="109" y1="22" x2="112" y2="19" stroke="#4D6A6D" stroke-width="1" opacity="0.5"/>
  <circle cx="32" cy="52" r="1.5" fill="#C9ADA1" opacity="0.4"/>
  <circle cx="172" cy="58" r="1" fill="#C9ADA1" opacity="0.35"/>
  <circle cx="20" cy="142" r="1" fill="#A0A083" opacity="0.25"/>
  <circle cx="180" cy="162" r="1.5" fill="#A0A083" opacity="0.25"/>
  <circle cx="154" cy="38" r="0.8" fill="#C9ADA1" opacity="0.3"/>
  <circle cx="48" cy="44" r="0.8" fill="#C9ADA1" opacity="0.3"/>
  <ellipse cx="100" cy="182" rx="52" ry="7" fill="#C9ADA1" opacity="0.18"/>
</svg>
