<svg xmlns="http://www.w3.org/2000/svg" viewBox="0 0 200 200">
  <rect width="200" height="200" fill="#EAE0CC"/>
  <rect x="61" y="53" width="82" height="106" rx="4" fill="#C9ADA1" opacity="0.22" transform="translate(3,3)"/>
  <rect x="61" y="50" width="82" height="106" rx="3" fill="#798478" opacity="0.88"/>
  <rect x="61" y="50" width="13" height="106" rx="3" fill="#4D6A6D" opacity="0.8"/>
  <rect x="140" y="52" width="5" height="102" rx="1.5" fill="#FAF7F2" opacity="0.55"/>
  <rect x="70" y="56" width="68" height="94" rx="2" fill="#FAF7F2" opacity="0.96"/>
  <line x1="78" y1="78" x2="130" y2="78" stroke="#C9ADA1" stroke-width="0.7" opacity="0.55"/>
  <line x1="78" y1="90" x2="128" y2="90" stroke="#C9ADA1" stroke-width="0.7" opacity="0.55"/>
  <line x1="78" y1="102" x2="130" y2="102" stroke="#C9ADA1" stroke-width="0.7" opacity="0.55"/>
  <line x1="78" y1="114" x2="125" y2="114" stroke="#C9ADA1" stroke-width="0.7" opacity="0.55"/>
  <line x1="78" y1="126" x2="120" y2="126" stroke="#C9ADA1" stroke-width="0.7" opacity="0.4"/>
  <circle cx="82" cy="68" r="1.2" fill="#A0A083" opacity="0.4"/>
  <circle cx="90" cy="68" r="1.2" fill="#A0A083" opacity="0.4"/>
  <circle cx="98" cy="68" r="1.2" fill="#A0A083" opacity="0.4"/>
  <circle cx="106" cy="68" r="1.2" fill="#A0A083" opacity="0.4"/>
  <path d="M61 98 H143" stroke="#4D6A6D" stroke-width="1.2" opacity="0.35"/>
  <circle cx="143" cy="103" r="4" fill="#4D6A6D" opacity="0.45" stroke="#4D6A6D" stroke-width="1"/>
  <rect x="148" y="50" width="4" height="82" rx="2" fill="#A0A083" opacity="0.65" transform="rotate(8 150 92)"/>
  <ellipse cx="100" cy="160" rx="46" ry="6" fill="#C9ADA1" opacity="0.2"/>
</svg>
