<svg xmlns="http://www.w3.org/2000/svg" viewBox="0 0 200 200">
  <rect width="200" height="200" fill="#F3EDE2"/>
  <path d="M100 50C100 50 70 92 70 122C70 140.673 83.327 155 100 155C116.673 155 130 140.673 130 122C130 92 100 50 100 50Z" fill="rgba(77,106,109,0.1)" stroke="#4D6A6D" stroke-width="1.5" stroke-linejoin="round"/>
  <path d="M100 82C100 82 76 104 76 122C76 133 87 143 100 143C113 143 124 133 124 122C124 104 100 82 100 82Z" fill="rgba(201,173,161,0.22)" stroke="none"/>
  <rect x="92" y="36" width="16" height="18" rx="3" fill="rgba(77,106,109,0.15)" stroke="#4D6A6D" stroke-width="1.5"/>
  <rect x="88" y="24" width="24" height="16" rx="5" fill="#4D6A6D" opacity="0.65"/>
  <line x1="100" y1="22" x2="100" y2="16" stroke="#4D6A6D" stroke-width="1.5" stroke-linecap="round"/>
  <path d="M100 11 Q103 16 100 21 Q97 16 100 11Z" fill="#4D6A6D" opacity="0.5"/>
  <path d="M66 92 Q52 86 57 72" stroke="#A0A083" stroke-width="1" fill="none" opacity="0.6"/>
  <path d="M66 92 Q57 80 62 66" stroke="#A0A083" stroke-width="0.8" fill="none" opacity="0.38"/>
  <path d="M66 102 Q50 98 54 84" stroke="#A0A083" stroke-width="0.7" fill="none" opacity="0.28"/>
  <path d="M134 94 Q148 88 143 74" stroke="#A0A083" stroke-width="1" fill="none" opacity="0.6"/>
  <path d="M134 94 Q143 82 138 68" stroke="#A0A083" stroke-width="0.8" fill="none" opacity="0.38"/>
  <path d="M134 104 Q150 100 146 86" stroke="#A0A083" stroke-width="0.7" fill="none" opacity="0.28"/>
  <path d="M86 78 Q82 98 80 116" stroke="white" stroke-width="1.5" stroke-linecap="round" fill="none" opacity="0.28"/>
  <ellipse cx="100" cy="122" rx="13" ry="11" stroke="#4D6A6D" stroke-width="0.8" fill="none" opacity="0.35"/>
  <ellipse cx="100" cy="158" rx="42" ry="6" fill="#C9ADA1" opacity="0.18"/>
</svg>
