<svg xmlns="http://www.w3.org/2000/svg" viewBox="0 0 200 200">
  <rect width="200" height="200" fill="#EAE0CC"/>
  <rect x="88" y="50" width="20" height="115" rx="5" fill="rgba(121,132,120,0.3)" stroke="#798478" stroke-width="1.5" transform="rotate(-15 98 108)"/>
  <line x1="90" y1="60" x2="92" y2="168" stroke="#C9ADA1" stroke-width="0.5" opacity="0.35" transform="rotate(-15 91 114)"/>
  <line x1="96" y1="58" x2="98" y2="166" stroke="#C9ADA1" stroke-width="0.4" opacity="0.25" transform="rotate(-15 97 112)"/>
  <rect x="106" y="48" width="18" height="108" rx="5" fill="rgba(121,132,120,0.22)" stroke="#A0A083" stroke-width="1.2" transform="rotate(18 115 102)"/>
  <line x1="111" y1="56" x2="113" y2="152" stroke="#C9ADA1" stroke-width="0.4" opacity="0.2" transform="rotate(18 112 104)"/>
  <path d="M120 44C126 32 114 24 120 14" stroke="#A0A083" stroke-width="1" stroke-linecap="round" opacity="0.45"/>
  <path d="M118 46C122 36 116 26 120 18" stroke="#C9ADA1" stroke-width="0.7" stroke-linecap="round" opacity="0.3"/>
  <circle cx="121" cy="42" r="2" fill="#C9ADA1" opacity="0.55"/>
  <circle cx="118" cy="46" r="1.2" fill="#A0A083" opacity="0.35"/>
  <circle cx="60" cy="80" r="1.2" fill="#C9ADA1" opacity="0.3"/>
  <circle cx="155" cy="100" r="1" fill="#A0A083" opacity="0.25"/>
  <circle cx="40" cy="140" r="0.8" fill="#C9ADA1" opacity="0.2"/>
  <ellipse cx="100" cy="170" rx="48" ry="7" fill="#C9ADA1" opacity="0.18"/>
</svg>
